<svg xmlns="http://www.w3.org/2000/svg"  viewBox="0 0 24 24" width="50px" height="50px"><path d="M11.707,21.973L5.48,20.08	c-0.383-0.12-0.659-0.453-0.703-0.854L2.999,3.107C2.934,2.52,3.398,2,3.994,2h16.011c0.595,0,1.059,0.52,0.993,1.107l-1.779,16.12	c-0.044,0.4-0.32,0.734-0.703,0.854l-6.227,1.893C12.1,22.027,11.896,22.027,11.707,21.973z M12.278,16.96l2.832-0.827	c0.387-0.12,0.668-0.454,0.715-0.854l0.947-8.173C16.839,6.52,16.375,6,15.777,6H8.219c-0.552,0-1,0.44-1,1c0,0.547,0.448,1,1,1	h6.436l-0.233,2h-2.423c-0.552,0-1,0.453-1,1s0.448,1,1,1h2.192l-0.277,2.4l-1.916,0.547L10.08,14.4L9.95,13.267	C9.887,12.72,9.39,12.333,8.842,12.4C8.294,12.453,7.9,12.96,7.964,13.507l0.207,1.773c0.045,0.4,0.327,0.733,0.713,0.854	l2.835,0.827C11.902,17,12.095,17,12.278,16.96z"/></svg>